<?xml version="1.0" encoding="iso-8859-1"?>
<!-- Generator: Adobe Illustrator 19.0.0, SVG Export Plug-In . SVG Version: 6.00 Build 0)  -->
<svg version="1.1" id="Capa_1" xmlns="http://www.w3.org/2000/svg" xmlns:xlink="http://www.w3.org/1999/xlink" x="0px" y="0px"
	 viewBox="0 0 480 480" style="enable-background:new 0 0 480 480;" xml:space="preserve">
<circle style="fill:#2196F3;" cx="80" cy="240" r="64"/>
<g>
	<circle style="fill:#FFC107;" cx="400" cy="400" r="64"/>
	<circle style="fill:#FFC107;" cx="400" cy="80" r="64"/>
</g>
<path d="M336,416h-96c-8.837,0-16-7.163-16-16V80c0-8.837,7.163-16,16-16h96c8.837,0,16,7.163,16,16s-7.163,16-16,16h-80v288h80
	c8.837,0,16,7.163,16,16S344.837,416,336,416z"/>
<path d="M240,256h-96c-8.837,0-16-7.163-16-16s7.163-16,16-16h96c8.837,0,16,7.163,16,16S248.837,256,240,256z"/>
<path d="M80,320c-44.183,0-80-35.817-80-80s35.817-80,80-80s80,35.817,80,80S124.183,320,80,320z M80,192c-26.51,0-48,21.49-48,48
	s21.49,48,48,48s48-21.49,48-48S106.51,192,80,192z"/>
<path d="M400,480c-44.183,0-80-35.817-80-80s35.817-80,80-80s80,35.817,80,80S444.183,480,400,480z M400,352
	c-26.51,0-48,21.49-48,48s21.49,48,48,48s48-21.49,48-48S426.51,352,400,352z"/>
<path d="M400,160c-44.183,0-80-35.817-80-80s35.817-80,80-80s80,35.817,80,80S444.183,160,400,160z M400,32c-26.51,0-48,21.49-48,48
	s21.49,48,48,48s48-21.49,48-48S426.51,32,400,32z"/>
<g>
</g>
<g>
</g>
<g>
</g>
<g>
</g>
<g>
</g>
<g>
</g>
<g>
</g>
<g>
</g>
<g>
</g>
<g>
</g>
<g>
</g>
<g>
</g>
<g>
</g>
<g>
</g>
<g>
</g>
</svg>
