<svg id="Layer_43" viewBox="0 0 36 36" xmlns="http://www.w3.org/2000/svg" data-name="Layer 43" width="300" height="300" version="1.1" xmlns:xlink="http://www.w3.org/1999/xlink" xmlns:svgjs="http://svgjs.dev/svgjs"><g width="100%" height="100%" transform="matrix(1,0,0,1,0,0)"><path d="m32 1h-28c-1.65 0-3 1.35-3 3v28c0 1.65 1.35 3 3 3h28c1.65 0 3-1.35 3-3v-28c0-1.65-1.35-3-3-3zm-6.29 27.71c-.2.19-.45.29-.71.29s-.51-.1-.71-.29l-3.1-3.11c-1.2.9-2.65 1.4-4.19 1.4-3.86 0-7-3.14-7-7s3.14-7 7-7 7 3.14 7 7c0 1.54-.5 2.99-1.4 4.19l3.11 3.1c.39.39.39 1.03 0 1.42zm7.29-21.71h-30v-3c0-.55.45-1 1-1h17v2c0 .55.45 1 1 1s1-.45 1-1v-2h2v2c0 .55.45 1 1 1s1-.45 1-1v-2h2v2c0 .55.45 1 1 1s1-.45 1-1v-2h1c.55 0 1 .45 1 1zm-11 13c0 1.34-.52 2.59-1.47 3.54-.94.94-2.19 1.46-3.53 1.46-2.76 0-5-2.24-5-5s2.24-5 5-5 5 2.24 5 5z" fill="#005fff" fill-opacity="1" data-original-color="#000000ff" stroke="none" stroke-opacity="1"/></g></svg>