<svg id="Layer_1" enable-background="new 0 0 512 512" viewBox="0 0 512 512" xmlns="http://www.w3.org/2000/svg" width="300" height="300" version="1.1" xmlns:xlink="http://www.w3.org/1999/xlink" xmlns:svgjs="http://svgjs.dev/svgjs"><g width="100%" height="100%" transform="matrix(1,0,0,1,0,0)"><path d="m449.076 341.725c-11.43-10.13-26.31-12.84-41.89-7.64l-81.18 27.1c-4.04-10.4-12.82-18.37-23.95-21.23-35.35-9.07-56.92-16.56-71.19-21.51-32.7-11.34-34.78-11.15-74.26 6.97-12 5.51-28.05 12.87-50.09 22.18l-7.18-17.35c-1.48-3.56-5.56-5.26-9.12-3.78l-53.72 22.19c-1.71.71-3.08 2.07-3.79 3.78s-.71 3.64 0 5.35l59.07 142.9c.71 1.71 2.07 3.07 3.78 3.78.86.35 1.77.53 2.68.53s1.82-.17 2.67-.53l53.75-22.22c1.71-.71 3.07-2.07 3.78-3.78s.71-3.64 0-5.35l-6.12-14.8 28.16-14.92c38.55 14.76 67.68 21.41 94.46 21.41 3.75 0 7.46-.13 11.14-.38 29.09-2.04 54.91-12.14 87.6-24.92 17.49-6.84 37.32-14.59 61.15-22.54 15.59-5.21 25.86-16.32 28.92-31.28 3.25-15.93-2.51-33.18-14.67-43.96zm.98 41.16c-1.43 6.98-6 16.26-19.66 20.82-24.16 8.06-44.16 15.88-61.81 22.78-66.07 25.84-96.23 37.64-186.04 2.74-1.89-.74-4.01-.62-5.8.33l-29.8 15.79-35.09-84.83c22.28-9.41 38.48-16.84 50.57-22.4 18.3-8.39 27.49-12.61 34.95-13.34 7.11-.69 13.94 1.68 28.91 6.88 14.49 5.02 36.38 12.62 72.29 21.84 8.34 2.14 14.48 9.06 15.65 17.62 0 .01.01.02.01.03.36 2.67.21 5.35-.48 7.97-2.88 11.25-14.38 18.06-25.62 15.18l-74.32-19.07c-3.74-.97-7.55 1.29-8.51 5.03-.96 3.73 1.29 7.54 5.03 8.5l74.33 19.08c2.91.74 5.82 1.1 8.69 1.1 15.61 0 29.89-10.54 33.94-26.32.64-2.47.99-4.97 1.08-7.49l83.23-27.78c13.65-4.56 22.87.11 28.2 4.84 8.37 7.41 12.48 19.75 10.25 30.7zm-210.48-185.44c-.68 3.24-3.53 5.55-6.84 5.55h-17.73v16.53h17.73c3.31 0 6.16 2.31 6.84 5.54 1.69 8.03 4.84 15.6 9.36 22.51 1.81 2.76 1.43 6.42-.91 8.76l-12.55 12.55 11.67 11.69 12.54-12.55c2.34-2.33 5.99-2.71 8.76-.91 6.91 4.5 14.48 7.64 22.51 9.33 3.24.68 5.55 3.54 5.55 6.84v17.73h16.53v-17.73c0-3.3 2.31-6.16 5.54-6.84 8.06-1.69 15.64-4.84 22.55-9.33 2.76-1.81 6.42-1.42 8.75.92l12.52 12.54 11.69-11.69-12.55-12.55c-2.34-2.34-2.72-6-.91-8.76 4.5-6.87 7.63-14.44 9.33-22.51.68-3.23 3.54-5.54 6.84-5.54h17.73v-16.53h-17.73c-3.3 0-6.16-2.31-6.84-5.55-1.689-8.03-4.83-15.6-9.33-22.51-1.8-2.77-1.42-6.42.91-8.76l12.55-12.55-11.69-11.68-12.52 12.54c-2.33 2.34-5.99 2.72-8.75.92-6.91-4.5-14.49-7.64-22.55-9.34-3.23-.68-5.54-3.53-5.54-6.84v-17.73h-16.53v17.73c0 3.31-2.31 6.16-5.55 6.84-7.97 1.68-15.55 4.83-22.53 9.35-2.76 1.79-6.4 1.41-8.74-.93l-12.54-12.54-11.68 11.69 12.54 12.55c2.33 2.33 2.71 5.97.92 8.73-4.52 6.98-7.67 14.56-9.35 22.53zm65.191-30.51c24.46 0 44.35 19.88 44.35 44.32 0 24.46-19.89 44.35-44.35 44.35-24.43 0-44.32-19.89-44.32-44.35-.001-24.44 19.889-44.32 44.32-44.32zm175.059 1.09c0 20.22-16.45 36.67-36.67 36.67h-34.65v-8.69c0-3.86-3.13-6.99-6.99-6.99h-19.26c-1.67-5.85-4.01-11.48-6.97-16.82l13.62-13.62c1.31-1.31 2.05-3.09 2.05-4.95 0-1.85-.74-3.63-2.05-4.94l-21.57-21.57c-1.31-1.31-3.09-2.05-4.94-2.05-1.86.01-3.63.74-4.94 2.06l-13.6 13.62c-5.34-2.97-10.98-5.3-16.85-6.98v-19.25c0-3.86-3.13-6.99-6.99-6.99h-30.5c-3.86 0-6.99 3.13-6.99 6.99v19.25c-5.82 1.68-11.45 4.01-16.81 6.99l-13.64-13.64c-1.31-1.31-3.08-2.05-4.94-2.05-1.85.01-3.63.74-4.94 2.05l-21.54 21.58c-2.73 2.72-2.73 7.14 0 9.87l13.61 13.63c-2.98 5.37-5.311 10.99-6.98 16.82h-19.26c-3.86 0-6.99 3.13-6.99 6.99v8.69h-10.53c-31.16 0-56.51-25.35-56.51-56.51s25.35-56.51 56.51-56.51h16.98c1.99 0 3.89-.85 5.22-2.34s1.95-3.48 1.72-5.46c-.28-2.31-.41-4.64-.41-7.12 0-38.46 34.54-69.75 77-69.75 42.18 0 76.729 31.06 77.01 69.23.01 2.07.94 4.02 2.53 5.34 1.59 1.31 3.69 1.86 5.72 1.48 2.35-.43 4.82-.65 7.35-.65 20.11 0 36.47 14.67 36.47 32.7 0 2.49-.33 5.02-.97 7.53-.54 2.09-.08 4.31 1.24 6.02 1.33 1.71 3.37 2.71 5.53 2.71h17.26c20.22 0 36.67 16.45 36.67 36.66zm-205.4 43.23c0-16.73 13.61-30.34 30.34-30.34 16.75 0 30.38 13.61 30.38 30.34 0 16.75-13.63 30.38-30.38 30.38-16.73 0-30.34-13.63-30.34-30.38z" fill="#005fff" fill-opacity="1" data-original-color="#000000ff" stroke="none" stroke-opacity="1"/></g></svg>