<svg id="Layer_3" height="512" viewBox="0 0 64 64" width="512" xmlns="http://www.w3.org/2000/svg" data-name="Layer 3"><rect fill="#e2e7f6" height="50" rx="2" width="60" x="2" y="2"/><path d="m4 2a2 2 0 0 0 -2 2v35h48a2 2 0 0 0 2-2v-35z" fill="#f7fafd"/><rect fill="#3b5892" height="4" rx="2" width="30" x="17" y="58"/><path d="m60 2h-56a2 2 0 0 0 -2 2v2h60v-2a2 2 0 0 0 -2-2z" fill="#3b5892"/><path d="m40 58-1-6h-14l-1 6z" fill="#c8cded"/><path d="m52 2h-48a2 2 0 0 0 -2 2v2h50z" fill="#4c6cb5"/><path d="m60 52h-56a2 2 0 0 1 -2-2v-6h60v6a2 2 0 0 1 -2 2z" fill="#3b5892"/><path d="m2 44v5h48a2 2 0 0 0 2-2v-3z" fill="#4c6cb5"/><g fill="#f7fafd"><path d="m40 47h4v2h-4z"/><path d="m20 47h4v2h-4z"/><path d="m26 47h12v2h-12z"/></g><path d="m23 2h18v4h-18z" fill="#c8cded"/><path d="m24.323 56.06h10.721a2 2 0 0 0 2-2v-2.06h-12.044z" fill="#e2e7f6"/><path d="m60 1h-56a3 3 0 0 0 -3 3v46a3 3 0 0 0 3 3h19.82l-.667 4h-4.153a3 3 0 0 0 0 6h26a3 3 0 0 0 0-6h-4.153l-.667-4h19.82a3 3 0 0 0 3-3v-46a3 3 0 0 0 -3-3zm1 3v1h-19v-2h18a1 1 0 0 1 1 1zm-37 1v-2h16v2zm37 2v36h-58v-36zm-57-4h18v2h-19v-1a1 1 0 0 1 1-1zm42 57a1 1 0 0 1 -1 1h-26a1 1 0 0 1 0-2h26a1 1 0 0 1 1 1zm-7.18-3h-13.64l.667-4h12.306zm21.18-6h-56a1 1 0 0 1 -1-1v-5h58v5a1 1 0 0 1 -1 1z"/><path d="m40 47h4v2h-4z"/><path d="m20 47h4v2h-4z"/><path d="m26 47h12v2h-12z"/></svg>