<svg id="Layer_1" viewBox="0 0 512 512" xmlns="http://www.w3.org/2000/svg" data-name="Layer 1"><g fill="#2196f3"><path d="m230.783 261.021a25.209 25.209 0 1 1 25.232 25.2 25.236 25.236 0 0 1 -25.232-25.2z" fill-rule="evenodd"/><path d="m361.148 68.796 20.733-20.765 70.074 70.07-20.783 20.767z" fill-rule="evenodd"/><path d="m109.389 453.754-81.555 18.388 18.414-81.539z" fill-rule="evenodd"/><path d="m201.614 427.831h108.755v11.86h-108.755z"/><path d="m310.369 451.7v5.086a9.177 9.177 0 0 1 -9.163 9.182h-90.382a9.217 9.217 0 0 1 -9.21-9.182v-5.086z" fill-rule="evenodd"/><path d="m292.679 477.961-3.44 13.088a9.009 9.009 0 0 1 -8.861 6.849h-48.773a9.009 9.009 0 0 1 -8.861-6.849l-3.44-13.088z" fill-rule="evenodd"/></g><path d="m47.4 394.583 58.008 58.017-74.926 16.9zm385.933-394.583h-6.594a47.643 47.643 0 0 0 -30.485 13.85l-95.142 95.15a157.864 157.864 0 0 0 -45.1-6.55c-87.461 0-158.57 71.137-158.57 158.575a158.475 158.475 0 0 0 6.5 45.154l-66.815 66.821a7.9 7.9 0 0 0 -2.168 3.9l-22.859 101.421a8.011 8.011 0 0 0 9.566 9.566l101.41-22.869a7.982 7.982 0 0 0 3.911-2.148l55.7-55.686a37.4 37.4 0 0 1 4.948 18.9v30.7a23.184 23.184 0 0 0 17.53 22.487l4.052 15.334a22.88 22.88 0 0 0 22.384 17.3h48.773a22.931 22.931 0 0 0 22.43-17.3l4.006-15.334a23.225 23.225 0 0 0 17.577-22.487v-30.7a36.435 36.435 0 0 1 17.251-31.584 158.544 158.544 0 0 0 56.831-203.1l87.7-87.683a47.815 47.815 0 0 0 0-67.532l-22.387-22.335a47.512 47.512 0 0 0 -30.449-13.85zm-302.76 358.114a156.335 156.335 0 0 1 -20.64-35.272l-55.842 55.813 27.944 27.963 48.538-48.5zm125.442-239.665c78.6 0 142.548 63.956 142.548 142.572a142.081 142.081 0 0 1 -65.595 120.023 52.4 52.4 0 0 0 -23.185 32.789h-45.8v-114.439a39.184 39.184 0 1 0 -15.975 0v114.439h-45.761a52.475 52.475 0 0 0 -23.232-32.789 142.192 142.192 0 0 1 -65.6-120.023c0-78.616 63.947-142.572 142.6-142.572zm96.6-38.339 27.991 27.963-27.606 27.6a159.34 159.34 0 0 0 -35.2-20.7l34.818-34.863zm54.946-54.946a31.793 31.793 0 0 1 44.908 0l22.387 22.346a31.844 31.844 0 0 1 0 44.9l-14.42 14.382-67.245-67.246 14.373-14.382zm-43.586 43.636 17.907-17.94 67.245 67.24-17.954 17.94zm1.225 77.33 26.719-26.733 27.944 27.963-29.5 29.527a160.607 160.607 0 0 0 -25.163-30.762zm-63.994 317.833h-90.382a7.216 7.216 0 0 1 -7.21-7.182v-3.087h104.755v3.087a7.175 7.175 0 0 1 -7.163 7.182zm-20.828 31.937h-48.773a7 7 0 0 1 -6.927-5.358l-2.78-10.579h68.187l-2.78 10.579a7 7 0 0 1 -6.927 5.358zm-24.363-211.68a23.2 23.2 0 1 1 23.185-23.2 23.239 23.239 0 0 1 -23.185 23.2zm52.354 145.611v7.86h-104.755v-7.86zm-137.977-35.331a159.751 159.751 0 0 1 -29.358-24.231l-47.642 47.664 27.944 27.967 50.422-50.441c-.424-.32-.895-.65-1.366-.959z" fill-rule="evenodd"/></svg>