<svg id="Capa_1" enable-background="new 0 0 512 512" height="300" viewBox="0 0 512 512" width="300" xmlns="http://www.w3.org/2000/svg" version="1.1" xmlns:xlink="http://www.w3.org/1999/xlink" xmlns:svgjs="http://svgjs.dev/svgjs"><g width="100%" height="100%" transform="matrix(1,0,0,1,0,0)"><g><path d="m464.866 144.6h-128.533c-26.076 0-47.133 21.106-47.133 47.135v273.132c0 26.075 21.103 47.134 47.133 47.134h128.533c26.076-.001 47.134-21.105 47.134-47.135v-273.132c0-26.076-21.107-47.134-47.134-47.134zm-48.199 64.266h-32.134c-8.284 0-15-6.716-15-15s6.716-15 15-15h32.134c8.284 0 15 6.716 15 15s-6.716 15-15 15z" fill="#005fff" fill-opacity="1" data-original-color="#000000ff" stroke="none" stroke-opacity="1"/><path d="m160.667 417.733h-33.2c-8.284 0-15 6.716-15 15s6.716 15 15 15h131.733v-66.4h-98.534v36.4z" fill="#005fff" fill-opacity="1" data-original-color="#000000ff" stroke="none" stroke-opacity="1"/><path d="m464.866 114.6c5.132 0 10.146.515 15 1.476v-68.943c0-25.989-21.144-47.133-47.133-47.133h-385.6c-25.989 0-47.133 21.145-47.133 47.134v257.066c0 25.989 21.144 47.133 47.133 47.133h212.067v-159.599c0-42.532 34.602-77.135 77.133-77.135h128.533z" fill="#005fff" fill-opacity="1" data-original-color="#000000ff" stroke="none" stroke-opacity="1"/></g></g></svg>