<svg id="Layer_1" height="300" viewBox="0 0 512 512" width="300" xmlns="http://www.w3.org/2000/svg" data-name="Layer 1" version="1.1" xmlns:xlink="http://www.w3.org/1999/xlink" xmlns:svgjs="http://svgjs.dev/svgjs"><g width="100%" height="100%" transform="matrix(1,0,0,1,0,0)"><path d="m307.75 65.416a195 195 0 0 1 46.41 19.24l32-32a20.2 20.2 0 0 1 28.541 0l44.639 44.644a20.2 20.2 0 0 1 0 28.541l-32 32a195.061 195.061 0 0 1 19.244 46.41h45.231a20.205 20.205 0 0 1 20.185 20.182v63.134a20.205 20.205 0 0 1 -20.182 20.183h-45.234a195.114 195.114 0 0 1 -19.24 46.41l32 32a20.2 20.2 0 0 1 0 28.541l-44.644 44.639a20.2 20.2 0 0 1 -28.541 0l-32-32a195.107 195.107 0 0 1 -46.41 19.244v45.231a20.205 20.205 0 0 1 -20.181 20.185h-63.135a20.205 20.205 0 0 1 -20.183-20.182v-45.235a195.01 195.01 0 0 1 -46.41-19.239l-32 32a20.2 20.2 0 0 1 -28.541 0l-44.639-44.644a20.2 20.2 0 0 1 0-28.541l32-32a195.107 195.107 0 0 1 -19.244-46.41h-45.234a20.205 20.205 0 0 1 -20.182-20.182v-63.134a20.205 20.205 0 0 1 20.182-20.183h45.235a195.11 195.11 0 0 1 19.24-46.409l-32-32a20.2 20.2 0 0 1 0-28.541l44.643-44.64a20.2 20.2 0 0 1 28.541 0l32 32a195.046 195.046 0 0 1 46.409-19.24v-45.238a20.205 20.205 0 0 1 20.183-20.182h63.135a20.205 20.205 0 0 1 20.182 20.182zm8.15 130.684a84.717 84.717 0 1 0 24.81 59.9 84.45 84.45 0 0 0 -24.81-59.9zm-59.9-45.291a105.192 105.192 0 1 0 74.381 30.81 104.862 104.862 0 0 0 -74.381-30.81z" fill-rule="evenodd" fill="#005fff" fill-opacity="1" data-original-color="#000000ff" stroke="none" stroke-opacity="1"/></g></svg>