<svg id="Glyph" viewBox="0 0 64 64" xmlns="http://www.w3.org/2000/svg" width="300" height="300" version="1.1" xmlns:xlink="http://www.w3.org/1999/xlink" xmlns:svgjs="http://svgjs.dev/svgjs"><g width="100%" height="100%" transform="matrix(1,0,0,1,0,0)"><path d="m38.36 31h6.05a12.4827 12.4827 0 0 0 -8.66-10.87c1.6 2.58 2.49 6.74 2.61 10.87z" fill="#005fff" fill-opacity="1" data-original-color="#000000ff" stroke="none" stroke-opacity="1"/><path d="m38.36 33c-.12 4.13-1.01 8.29-2.61 10.87a12.4827 12.4827 0 0 0 8.66-10.87z" fill="#005fff" fill-opacity="1" data-original-color="#000000ff" stroke="none" stroke-opacity="1"/><path d="m32.18 19.56c-2.42393-.00008-4.23444 4.87209-4.54014 11.43991l8.72014.00009c-.19-6.41-2.26-11.15-4.18-11.44z" fill="#005fff" fill-opacity="1" data-original-color="#000000ff" stroke="none" stroke-opacity="1"/><path d="m27.78 35.1c.3647 3.02218.898 6.40408 2.96983 8.73a1.67145 1.67145 0 0 0 2.73017-.24011c2.24563-2.96262 2.67781-6.95394 2.88014-10.58984l-8.72014-.00005c.02.72.07 1.42.14 2.1z" fill="#005fff" fill-opacity="1" data-original-color="#000000ff" stroke="none" stroke-opacity="1"/><path d="m25.64 31c.12-4.13 1.01-8.29 2.61-10.87a12.48273 12.48273 0 0 0 -8.66 10.87z" fill="#005fff" fill-opacity="1" data-original-color="#000000ff" stroke="none" stroke-opacity="1"/><path d="m25.64 33h-6.05a12.48273 12.48273 0 0 0 8.66 10.87c-1.6-2.58-2.49-6.74-2.61-10.87z" fill="#005fff" fill-opacity="1" data-original-color="#000000ff" stroke="none" stroke-opacity="1"/><path d="m29.63916 8.78223 1.36084-1.36115v6.3465a1.00019 1.00019 0 0 0 2-.00007v-6.34643l1.36084 1.36115a1.00008 1.00008 0 0 0 1.414-1.41411l-3.053-3.05348a.98538.98538 0 0 0 -1.44372 0l-3.053 3.05352a1.00008 1.00008 0 0 0 1.41404 1.41407z" fill="#005fff" fill-opacity="1" data-original-color="#000000ff" stroke="none" stroke-opacity="1"/><path d="m12.91308 18.252a.99973.99973 0 0 0 1-1v-1.925l4.4878 4.48742a1.00008 1.00008 0 0 0 1.414-1.4141l-4.48762-4.48726h1.92474a1.00019 1.00019 0 0 0 -.00006-2h-4.3186a.99749.99749 0 0 0 -1.02018 1.02022v4.31864a.99974.99974 0 0 0 .99992 1.00008z" fill="#005fff" fill-opacity="1" data-original-color="#000000ff" stroke="none" stroke-opacity="1"/><path d="m7.42071 33h6.34687a1.00019 1.00019 0 0 0 -.00007-2h-6.3468l1.361-1.36133a1.00008 1.00008 0 0 0 -1.41411-1.414l-3.05278 3.05333a.99726.99726 0 0 0 0 1.44409l3.05282 3.05335a.99988.99988 0 1 0 1.414-1.41407z" fill="#005fff" fill-opacity="1" data-original-color="#000000ff" stroke="none" stroke-opacity="1"/><path d="m18.40088 44.18555-4.4878 4.48745v-1.92495a1.00019 1.00019 0 0 0 -2 .00006v4.3186a.99579.99579 0 0 0 1.02022 1.02019h4.3187a1 1 0 1 0 0-2h-1.92473l4.48767-4.4873a1.00008 1.00008 0 0 0 -1.41406-1.41405z" fill="#005fff" fill-opacity="1" data-original-color="#000000ff" stroke="none" stroke-opacity="1"/><path d="m34.36084 55.21777-1.36084 1.36115v-6.3465a1.00019 1.00019 0 0 0 -2 .00007v6.34643l-1.36084-1.36115a1.00009 1.00009 0 0 0 -1.414 1.41411l3.053 3.05348a.98538.98538 0 0 0 1.44372 0l3.053-3.05352a1.00008 1.00008 0 0 0 -1.41404-1.41407z" fill="#005fff" fill-opacity="1" data-original-color="#000000ff" stroke="none" stroke-opacity="1"/><path d="m51.08691 45.74805a.99974.99974 0 0 0 -1 1v1.92495l-4.48779-4.48742a1.00008 1.00008 0 0 0 -1.414 1.4141l4.48762 4.48726h-1.92474a1.00019 1.00019 0 0 0 .00007 2h4.3186a.99584.99584 0 0 0 1.02018-1.02021v-4.31865a.99973.99973 0 0 0 -.99994-1.00003z" fill="#005fff" fill-opacity="1" data-original-color="#000000ff" stroke="none" stroke-opacity="1"/><path d="m59.68518 31.278-3.05286-3.05334a1.00007 1.00007 0 0 0 -1.414 1.4141l1.36096 1.36124h-6.34686a1 1 0 1 0 0 2h6.34686l-1.361 1.36133a1.00008 1.00008 0 0 0 1.4141 1.414l3.05282-3.05329a.9973.9973 0 0 0 -.00002-1.44404z" fill="#005fff" fill-opacity="1" data-original-color="#000000ff" stroke="none" stroke-opacity="1"/><path d="m44.89209 20.10742a.99672.99672 0 0 0 .707-.293l4.48782-4.48742v1.925a1.00019 1.00019 0 0 0 2-.00006v-4.3186a.9975.9975 0 0 0 -1.02022-1.02018h-4.31865a1 1 0 0 0 0 2h1.92469l-4.48767 4.4873a1.00669 1.00669 0 0 0 .70703 1.70696z" fill="#005fff" fill-opacity="1" data-original-color="#000000ff" stroke="none" stroke-opacity="1"/></g></svg>