<svg enable-background="new 0 0 512 512" viewBox="0 0 512 512" xmlns="http://www.w3.org/2000/svg"><g id="_x32_8_x2C__home_x2C_home_button_x2C__home_page_x2C__social_media_x2C__interface_x2C__house"><g><path d="m451 196v75l-217.4 17.6-172.6-17.6v-75l199.8-24.2z" fill="#ffb09f"/><path d="m61 271v159.37c0 36.25 29.38 65.63 65.63 65.63h69.87l55.5-23.4 63.5 23.4h69.87c36.25 0 65.63-29.38 65.63-65.63v-159.37z" fill="#ffcec1"/><path d="m496.26 196c-18.629 0-456.56 0-480.52 0l240.26-180z" fill="#ff3f2e"/><path d="m315.5 386.02v109.98h-119v-109.98c0-22.1 17.92-40.02 40.02-40.02h38.96c22.1 0 40.02 17.92 40.02 40.02z" fill="#6e788b"/><g><path d="m505.252 183.995-240.258-180c-5.332-3.994-12.656-3.994-17.988 0l-240.258 180c-5.168 3.872-7.278 10.617-5.237 16.745 2.041 6.127 7.773 10.26 14.231 10.26h30.258v219.37c0 44.459 36.171 80.63 80.63 80.63h258.74c44.459 0 80.63-36.171 80.63-80.63v-219.37h30.258c6.458 0 12.19-4.133 14.231-10.26s-.069-12.873-5.237-16.745zm-249.252-149.252 195.219 146.257h-390.438zm-44.5 446.257v-94.982c0-13.795 11.223-25.018 25.018-25.018h38.965c13.795 0 25.018 11.223 25.018 25.018v94.982zm173.87 0h-54.87v-94.982c0-30.337-24.681-55.018-55.018-55.018h-38.965c-30.337 0-55.018 24.681-55.018 55.018v94.982h-54.87c-27.916 0-50.629-22.713-50.629-50.63v-144.37h360v144.37c0 27.917-22.713 50.63-50.63 50.63zm50.63-225h-360v-45h360z"/></g></g></g><g id="Layer_1"/></svg>