<svg id="Market_Research" viewBox="0 0 64 64" xmlns="http://www.w3.org/2000/svg" data-name="Market Research" width="300" height="300" version="1.1" xmlns:xlink="http://www.w3.org/1999/xlink" xmlns:svgjs="http://svgjs.dev/svgjs"><g width="100%" height="100%" transform="matrix(1,0,0,1,0,0)"><path d="m31 22c0-.55-.45-1-1-1h-4c-.55 0-1 .45-1 1v18c0 .55.45 1 1 1h2.04c.2-2.87 1.27-5.51 2.96-7.65z" fill="#005fff" fill-opacity="1" data-original-color="#000000ff" stroke="none" stroke-opacity="1"/><path d="m34 25c-.55 0-1 .45-1 1v5.29c1.7-1.44 3.75-2.47 6-2.97v-2.32c0-.55-.45-1-1-1z" fill="#005fff" fill-opacity="1" data-original-color="#000000ff" stroke="none" stroke-opacity="1"/><path d="m34.06 41h3.94c.55 0 1-.45 1-1v-5.41c-2.63 1.07-4.57 3.5-4.94 6.41z" fill="#005fff" fill-opacity="1" data-original-color="#000000ff" stroke="none" stroke-opacity="1"/><path d="m46 17h-4c-.55 0-1 .45-1 1v10.04c.33-.03.66-.04 1-.04 1.76 0 3.45.33 5 .93v-10.93c0-.55-.45-1-1-1z" fill="#005fff" fill-opacity="1" data-original-color="#000000ff" stroke="none" stroke-opacity="1"/><path d="m41 34.06v5.94c0 .55.45 1 1 1h4c.55 0 1-.45 1-1v-4.23c-1.37-1.11-3.11-1.77-5-1.77-.34 0-.67.02-1 .06z" fill="#005fff" fill-opacity="1" data-original-color="#000000ff" stroke="none" stroke-opacity="1"/><rect height="12" rx="1" width="6" x="17" y="29" fill="#005fff" fill-opacity="1" data-original-color="#000000ff" stroke="none" stroke-opacity="1"/><path d="m61.71 56.67-6.38-6.38c-.39-.39-1.03-.39-1.42 0l-1.1 1.11-1.66-1.66c1.78-2.09 2.85-4.79 2.85-7.74 0-6.62-5.38-12-12-12s-12 5.38-12 12 5.38 12 12 12c2.95 0 5.65-1.07 7.74-2.85l1.66 1.66-1.11 1.1c-.39.39-.39 1.03 0 1.42l6.38 6.38c.2.19.45.29.71.29s.51-.1.71-.29l3.62-3.62c.39-.39.39-1.03 0-1.42zm-19.71-4.67c-5.51 0-10-4.49-10-10s4.49-10 10-10 10 4.49 10 10-4.49 10-10 10z" fill="#005fff" fill-opacity="1" data-original-color="#000000ff" stroke="none" stroke-opacity="1"/><path d="m47 8c0-.12-.01-.24-.06-.36-.15-.39-.52-.64-.93-.64h-5c-.55 0-1 .45-1 1s.45 1 1 1h2.41l-8.31 7.56-4.33-5.2c-.34-.41-.94-.48-1.37-.16l-12 9c-.44.33-.53.96-.2 1.4.2.26.5.4.8.4.21 0 .42-.06.6-.2l11.24-8.43 4.39 5.27c.17.21.43.34.7.36.27.01.54-.07.74-.26l9.33-8.48v1.74c0 .55.45 1 1 1s1-.45 1-1v-4z" fill="#005fff" fill-opacity="1" data-original-color="#000000ff" stroke="none" stroke-opacity="1"/><path d="m18 49h9c.55 0 1-.45 1-1s-.45-1-1-1h-9c-.55 0-1 .45-1 1s.45 1 1 1z" fill="#005fff" fill-opacity="1" data-original-color="#000000ff" stroke="none" stroke-opacity="1"/><path d="m18 55h14c.55 0 1-.45 1-1s-.45-1-1-1h-14c-.55 0-1 .45-1 1s.45 1 1 1z" fill="#005fff" fill-opacity="1" data-original-color="#000000ff" stroke="none" stroke-opacity="1"/><path d="m51 60h-40.03c.63-.84 1.03-1.87 1.03-3v-52c0-.55.45-1 1-1h38c.55 0 1 .45 1 1v26.11c0 .55.45 1 1 1s1-.45 1-1v-26.11c0-1.65-1.35-3-3-3h-38c-1.65 0-3 1.35-3 3v39h-7c-.55 0-1 .45-1 1v12c0 2.76 2.24 5 5 5h44c.55 0 1-.45 1-1s-.45-1-1-1z" fill="#005fff" fill-opacity="1" data-original-color="#000000ff" stroke="none" stroke-opacity="1"/></g></svg>