<svg id="Brand_Awareness" viewBox="0 0 64 64" xmlns="http://www.w3.org/2000/svg" data-name="Brand Awareness"><path d="m47 32c-8.27 0-15 6.73-15 15s6.73 15 15 15 15-6.73 15-15-6.73-15-15-15zm0 28c-7.17 0-13-5.83-13-13s5.83-13 13-13 13 5.83 13 13-5.83 13-13 13z"/><path d="m54.27 43.38-3.81-1.07-2.63-3.88c-.37-.55-1.28-.55-1.66 0l-2.63 3.88-3.81 1.07c-.34.09-.6.36-.69.7s0 .7.24.96l2.74 2.88-1.48 4.79c-.12.37 0 .78.28 1.04.29.26.71.33 1.06.18l5.12-2.17 5.12 2.17c.12.05.26.08.39.08.24 0 .48-.09.67-.26.29-.26.4-.67.28-1.04l-1.48-4.79 2.74-2.88c.24-.25.33-.62.24-.96s-.36-.6-.69-.7zm-4.14 3.58c-.25.26-.34.64-.23.98l1.02 3.29-3.53-1.49c-.12-.05-.26-.08-.39-.08s-.27.03-.39.08l-3.53 1.49 1.02-3.29c.11-.35.02-.72-.23-.98l-2-2.1 2.57-.72c.23-.06.43-.21.56-.4l2.01-2.96 2.01 2.96c.13.2.33.34.56.4l2.57.72-2 2.1z"/><path d="m22.85 33 10.37 3.07c.09.03.19.04.28.04.43 0 .83-.28.96-.72.16-.53-.15-1.09-.67-1.24l-9.79-2.9v-16.5l25-7.41v22.66c0 .55.45 1 1 1s1-.45 1-1v-1.09c2.83-.48 5-2.94 5-5.91s-2.17-5.43-5-5.91v-14.09c0-.55-.45-1-1-1s-1 .45-1 1v2.25l-26.15 7.75h-15.85c-2.76 0-5 2.24-5 5v10c0 2.76 2.24 5 5 5h1.67v18c0 .55.45 1 1 1h4c2.76 0 5-2.24 5-5v-14h4.19zm31.15-10c0 1.86-1.28 3.41-3 3.86v-7.72c1.72.45 3 2 3 3.86zm-50 5v-10c0-1.65 1.35-3 3-3h15v16h-15c-1.65 0-3-1.35-3-3zm12.67 19c0 1.65-1.35 3-3 3h-3v-17h6z"/></svg>