<svg id="Layer_1" enable-background="new 0 0 512 512" viewBox="0 0 512 512" xmlns="http://www.w3.org/2000/svg"><g clip-rule="evenodd" fill-rule="evenodd"><path d="m19.63 134.78h472.77c6.37 0 11.59 5.22 11.59 11.62v273.64c0 6.4-5.22 11.62-11.59 11.62h-472.77c-6.4 0-11.62-5.22-11.62-11.62v-273.64c0-6.4 5.22-11.62 11.62-11.62z" fill="#0593fc"/><path d="m450.66 90.22c-63.29-13.54-126.59-13.51-189.91 2.36-3.27.8-6.23.8-9.5 0-63.29-15.87-126.59-15.9-189.88-2.36-9.14 1.95-15.49 9.8-15.49 19.11v258.18c0 6.04 2.47 11.26 7.14 15.1 4.67 3.82 10.24 5.24 16.17 4.06 60.69-11.89 121.37-11.23 182.06 3.98 3.27.8 6.23.8 9.5 0 60.69-15.21 121.37-15.87 182.06-3.98 5.93 1.18 11.53-.25 16.2-4.06 4.67-3.84 7.11-9.06 7.11-15.1v-258.18c0-9.31-6.34-17.16-15.46-19.11z" fill="#ebf5fc"/><path d="m186.99 81.81c-24.03-2.06-48.05-1.92-72.08.25v99.21l36.03-35.4 36.05 35.4z" fill="#ffd400"/><path d="m67.49 88.95c-2.06.41-4.09.82-6.12 1.26-9.14 1.95-15.49 9.8-15.49 19.11v258.18c0 6.04 2.47 11.26 7.14 15.1 4.2 3.46 9.17 4.94 14.47 4.34z" fill="#d4dde3"/><path d="m19.63 134.78h17.99c-6.37 0-11.59 5.22-11.59 11.62v273.64c0 6.4 5.22 11.62 11.59 11.62h-17.99c-6.4 0-11.62-5.22-11.62-11.62v-273.64c0-6.4 5.22-11.62 11.62-11.62z" fill="#0584e3"/></g><path d="m492.38 126.77h-18.25v-17.46c0-13.12-8.96-24.2-21.8-26.95-65.89-14.07-130.99-13.26-193.5 2.42-2.01.5-3.65.5-5.64 0-21.31-5.34-42.92-8.96-64.75-10.85-.47-.09-.96-.14-1.45-.14-.04 0-.09.01-.13.01-23.72-1.96-47.71-1.89-71.87.22-.03 0-.05 0-.08 0-.56 0-1.1.06-1.62.17-17.78 1.63-35.66 4.34-53.6 8.18-12.83 2.75-21.8 13.83-21.8 26.95v17.46h-18.3c-10.8-.01-19.59 8.77-19.59 19.58v273.66c0 10.82 8.79 19.62 19.59 19.62h472.79c10.82 0 19.62-8.8 19.62-19.62v-273.66c0-10.81-8.8-19.59-19.62-19.59zm-43.4-28.78c5.48 1.17 9.16 5.72 9.16 11.32v258.18c0 3.67-1.38 6.58-4.23 8.91-2.84 2.34-5.95 3.13-9.57 2.41-61.26-11.99-121.9-11.04-180.34 2.8v-281.64c59.73-14.77 121.97-15.44 184.98-1.98zm-270-8.74v72.95l-22.46-22.06c-3.11-3.05-8.09-3.05-11.2 0l-22.43 22.04v-72.75c18.83-1.35 37.55-1.41 56.09-.18zm-125.12 20.06c0-5.6 3.68-10.14 9.15-11.32 14.68-3.14 29.31-5.49 43.88-7.1v90.36c0 3.22 1.93 6.13 4.9 7.37 1 .42 2.05.62 3.09.62 2.06 0 4.08-.79 5.6-2.29l30.43-29.9 30.45 29.9c2.3 2.26 5.72 2.91 8.69 1.67 2.97-1.25 4.9-4.15 4.9-7.37v-90.62c17.86 1.91 35.56 5.02 53.04 9.34v281.64c-31.35-7.42-63.32-11.14-95.69-11.14-28 0-56.3 2.78-84.73 8.34-3.57.72-6.69-.07-9.53-2.42-2.83-2.33-4.2-5.24-4.2-8.91v-258.17zm442.15 310.7c0 1.97-1.66 3.63-3.63 3.63h-472.79c-1.95 0-3.6-1.66-3.6-3.63v-273.65c0-1.95 1.65-3.6 3.6-3.6h18.28v224.73c0 8.38 3.56 15.93 10.03 21.25 6.5 5.36 14.62 7.41 22.8 5.76 60.75-11.89 120.83-10.58 178.58 3.88 2.28.58 4.49.86 6.7.86s4.42-.29 6.72-.86c57.74-14.46 117.82-15.77 178.53-3.88 8.35 1.67 16.25-.32 22.81-5.73 6.5-5.32 10.08-12.87 10.08-21.27v-224.75h18.25c1.97 0 3.63 1.65 3.63 3.6v273.66z"/></svg>