<svg id="Layer_1" viewBox="0 0 512 512" xmlns="http://www.w3.org/2000/svg" data-name="Layer 1" width="300" height="300" version="1.1" xmlns:xlink="http://www.w3.org/1999/xlink" xmlns:svgjs="http://svgjs.dev/svgjs"><g width="100%" height="100%" transform="matrix(1,0,0,1,0,0)"><path d="m133.931 256.078 10.373 9.169c6.614 5.851-2.3 15.92-8.908 10.068l-42.838-37.865-30.691 22.572v31.947h127.277v-35.521l-26.844-21.235-28.371 20.865zm-72.064-12.77v-74.3h127.277v70.311l-22.182-17.549a6.737 6.737 0 0 0 -8.5-.442l-34.848 25.63-25.939-22.928a6.735 6.735 0 0 0 -8.718-.646zm67.12-49.023a6.179 6.179 0 1 0 1.808 4.368 6.156 6.156 0 0 0 -1.808-4.368zm-4.367-15.3a19.673 19.673 0 1 0 13.909 5.762 19.61 19.61 0 0 0 -13.909-5.762zm-67.963-110.33a6.752 6.752 0 1 1 7-6.747 6.748 6.748 0 0 1 -7 6.747zm34.468 0a6.752 6.752 0 1 1 7-6.747 6.748 6.748 0 0 1 -7 6.747zm34.468 0a6.752 6.752 0 1 1 7-6.747 6.748 6.748 0 0 1 -7 6.747zm68.741 0c-8.876 0-8.876-13.5 0-13.5h204.3c8.876 0 8.876 13.5 0 13.5zm-178.334 28.115h423.289v-63.748a6.928 6.928 0 0 0 -6.89-6.891h-409.508a6.928 6.928 0 0 0 -6.891 6.891zm231.416 208.7a6.748 6.748 0 0 1 0-13.5h43.458a6.748 6.748 0 0 1 0 13.5zm0-45.487a6.748 6.748 0 1 1 0-13.5h61.871a6.748 6.748 0 1 1 0 13.5zm0-45.486a6.748 6.748 0 0 1 0-13.495h142.621a6.748 6.748 0 1 1 0 13.495zm0-45.487a6.748 6.748 0 0 1 0-13.5h142.621a6.748 6.748 0 1 1 0 13.5zm-192.296 181.941a6.748 6.748 0 0 1 0-13.5h228.848a6.748 6.748 0 0 1 0 13.5zm351.871-39.128-5.768-14.523-5.6 14.1a6.738 6.738 0 0 1 -5.994 4.668l-15.545.994 11.768 9.757a6.746 6.746 0 0 1 2.468 7.041l-3.865 15.115 13.046-8.259a6.73 6.73 0 0 1 7.306-.087l13.182 8.346-3.861-15.117a6.738 6.738 0 0 1 2.237-6.851l12-9.945-15.544-1.007a6.719 6.719 0 0 1 -5.826-4.231zm.479-35.206 10.437 26.283 28.235 1.806a6.735 6.735 0 0 1 3.871 11.91l-21.761 18.047 7.009 27.414a6.758 6.758 0 0 1 -10.536 7.091l-23.5-14.879-23.916 15.141a6.742 6.742 0 0 1 -10.106-7.349l6.992-27.418-21.765-18.047a6.748 6.748 0 0 1 4.115-11.929l27.994-1.791 10.437-26.279a6.729 6.729 0 0 1 12.494 0zm36.172 7.9a59.164 59.164 0 1 1 -41.834-17.327 58.977 58.977 0 0 1 41.834 17.327zm-41.834-30.817a72.658 72.658 0 1 1 -51.374 21.281 72.433 72.433 0 0 1 51.374-21.281zm-63.039 156.374-24.159 59.334c4.953-2.812 20.425-12.558 24.664-13.783a6.723 6.723 0 0 1 8.329 4.586l7.412 25.658 24.859-61.051c-5.3-3.045-8.09-2.767-14.159-2.545-12.532.459-20.22-.737-26.946-12.2zm-10.6-9.723h-305.278a6.929 6.929 0 0 1 -6.891-6.891v-283.195h423.289v120.116c-9.935.329-10.819.541-19.257-4.764-14.812-9.311-21.635-9.311-36.447 0-7.656 4.813-8.811 5.144-17.872 4.813-16.774-.614-22.1 2.416-29.727 17.408-4.015 7.891-4.8 8.674-12.689 12.689-14.993 7.628-18.023 12.953-17.409 29.728.331 9.06 0 10.218-4.813 17.873-9.31 14.811-9.311 21.637 0 36.447 4.813 7.655 5.145 8.811 4.813 17.871-.614 16.776 2.416 22.1 17.409 29.728 6.409 3.261 7.307 2.2 4.876 8.176zm95.57 24.468 24.858 61.05 7.412-25.658a6.724 6.724 0 0 1 8.329-4.586c4.239 1.225 19.711 10.971 24.665 13.783l-24.159-59.333c-6.726 11.461-14.413 12.656-26.943 12.2-6.074-.222-8.856-.5-14.162 2.547zm-12.682-8a51.868 51.868 0 0 1 13.763-7.076c4.535-1.248 9.055-1.083 13.555-.918 11.318.414 12.1.01 17.234-10.082 5.378-10.57 8.023-13.214 18.593-18.593 10.092-5.134 10.5-5.917 10.081-17.234-.432-11.813.588-15.526 6.869-25.516 6.458-10.272 6.457-11.836 0-22.108-6.28-9.991-7.3-13.7-6.868-25.517.413-11.316.01-12.1-10.082-17.233-10.57-5.378-13.215-8.024-18.593-18.593-5.073-9.97-5.889-10.5-17.234-10.082-11.813.433-15.526-.588-25.516-6.868-10.274-6.458-11.836-6.458-22.108 0-9.992 6.282-13.7 7.3-25.516 6.869-11.317-.414-12.1-.012-17.234 10.081-5.378 10.57-8.023 13.216-18.593 18.593-10.093 5.136-10.5 5.918-10.081 17.235.432 11.813-.589 15.526-6.87 25.516-6.457 10.273-6.458 11.837 0 22.109 6.281 9.991 7.3 13.7 6.869 25.514-.415 11.318-.012 12.1 10.08 17.235 10.57 5.377 13.216 8.024 18.593 18.593 5.135 10.093 5.918 10.5 17.235 10.082 11.813-.433 15.525.588 25.516 6.868 8.956 5.63 11.1 6.8 20.306 1.125zm-355.938-261.309h140.772a6.748 6.748 0 0 1 6.748 6.747v136.46a6.748 6.748 0 0 1 -6.748 6.747h-140.772a6.747 6.747 0 0 1 -6.747-6.747v-136.46a6.747 6.747 0 0 1 6.747-6.747z" fill-rule="evenodd" fill="#005fff" fill-opacity="1" data-original-color="#000000ff" stroke="none" stroke-opacity="1"/></g></svg>