<svg id="Filled" viewBox="0 0 32 32" xmlns="http://www.w3.org/2000/svg" width="300" height="300" version="1.1" xmlns:xlink="http://www.w3.org/1999/xlink" xmlns:svgjs="http://svgjs.dev/svgjs"><g width="100%" height="100%" transform="matrix(1,0,0,1,0,0)"><path d="m27.7299805 17.2299805c-1.0199585-1.0200195-2.6799927-1.0200195-3.6999512 0l-.3400269.3400269.3499756.3499756.3500366.3499756 1.1499634 1.1400146.0200195.0200195 1.1300049 1.1400146.3499756.3499756.3500366.3499756.3399658-.3399658c1.0200195-1.0200195 1.0200195-2.6799927 0-3.7000122z" fill="#005fff" fill-opacity="1" data-original-color="#000000ff" stroke="none" stroke-opacity="1"/><path d="m25.9799805 21.2699585-.7799683-.789978-7.8699951 7.8599854c-.1000366.1000366-.2200317.1500244-.3500366.1500244s-.2600098-.0499878-.3599854-.1500244c-.1900024-.1900024-.1900024-.5100098 0-.7099609l7.8699951-7.8600464-1.1499634-1.1499634-.3600464-.3500366-8.3299561 8.3800049c-.1000366.0900269-.1500244.2200317-.1500244.3500366v3c0 .2799683.2199707.5.5.5h3c.1300049 0 .2600098-.0499878.3499756-.1500244l8.3400269-8.3800049-.3499756-.3499756-.3600464-.3500366z" fill="#005fff" fill-opacity="1" data-original-color="#000000ff" stroke="none" stroke-opacity="1"/><path d="m12 27.5h-7.5v-21h3.5c.2800293 0 .5-.2200317.5-.5v-3.5h13v13.5c0 .2799683.2199707.5.5.5s.5-.2200317.5-.5v-14c0-.2800293-.2199707-.5-.5-.5h-14c-.1300049 0-.2600098.0499878-.3499756.1499634l-4 4c-.1000366.0900269-.1500244.2200317-.1500244.3500366v22c0 .2799683.2199707.5.5.5h8c.2800293 0 .5-.2200317.5-.5 0-.2800293-.2199707-.5-.5-.5z" fill="#005fff" fill-opacity="1" data-original-color="#000000ff" stroke="none" stroke-opacity="1"/><path d="m16.1599731 20.6199951.7800293.4299927c.1699829.0999756.3800049.0800171.539978-.0300293.5800171-.4400024 1.1000366-.9599609 1.5400391-1.539978.1099854-.1599731.1300049-.3699951.0299683-.539978l-.4299927-.7800293c.2600098-.4599609.4500122-.9299927.5900269-1.4199829l.8599854-.25c.1799927-.0499878.3200073-.210022.3499756-.4000244.1100464-.7199707.1100464-1.4599609 0-2.1799927-.0299683-.1900024-.1699829-.3499756-.3499756-.3999634l-.8599854-.25c-.1400146-.4900513-.3300171-.960022-.5900269-1.4200439l.4299927-.7799683c.1000366-.1699829.0800171-.3800049-.0299683-.5400391-.4400024-.5799561-.960022-1.0999756-1.5400391-1.539978-.1599731-.1099854-.3699951-.1300049-.539978-.0299683l-.7800293.4299927c-.4599609-.2600098-.9299927-.4500122-1.4199829-.5900269l-.25-.8599854c-.0499878-.1799927-.2099609-.3200073-.3999634-.3500366-.7200317-.1099854-1.460022-.1099854-2.1800537 0-.1900024.0300293-.3499756.1700439-.3999634.3500366l-.25.8599854c-.4899902.1400146-.960022.3300171-1.4199829.5900269l-.7800293-.4299927c-.1699829-.1000366-.3800049-.0800171-.539978.0299683-.5800171.4400024-1.1000366.960022-1.5400391 1.539978-.1099854.1600342-.1300049.3700562-.0299683.5400391l.4299927.7799683c-.2600098.460022-.4500122.9299927-.5900269 1.4200439l-.8599854.25c-.1799927.0499878-.3200073.2099609-.3499756.3999634-.1100464.7200317-.1100464 1.460022 0 2.1799927.0299683.1900024.1699829.3500366.3499756.4000244l.8599854.25c.1400146.4899902.3300171.960022.5900269 1.4199829l-.4299927.7800293c-.1000366.1699829-.0800171.3800049.0299683.539978.4400024.5800171.960022 1.0999756 1.5400391 1.539978.1599731.1100464.3699951.1300049.539978.0300293l.7800293-.4299927c.4599609.2600098.9299927.4500122 1.4199829.5899658l.25.8600464c.0499878.1799927.2099609.3200073.3999634.3499756.3600464.0499878.7300415.0800171 1.0900269.0800171s.7299805-.0300293 1.0900269-.0800171c.1900024-.0299683.3499756-.1699829.3999634-.3499756l.25-.8600464c.4899902-.1399536.960022-.3299561 1.4199829-.5899658zm-1.9299927-.3099976c-.1699829.039978-.3099976.1699829-.3599854.3399658l-.2399902.8200073c-.4199829.0400391-.8400269.0400391-1.2600098 0l-.2399902-.8200073c-.0499878-.1699829-.1900024-.2999878-.3599854-.3399658-.5800171-.1300049-1.1300049-.3599854-1.6600342-.6900024-.1499634-.0900269-.3399658-.0900269-.5-.0100098l-.7399902.4099731c-.3300171-.2699585-.6199951-.5599976-.8900146-.8899536l.4100342-.7399902c.0799561-.1600342.0799561-.3500366-.0100098-.5-.3300171-.5300293-.5599976-1.0800171-.6900024-1.6600342-.039978-.1699829-.1699829-.3099976-.3400269-.3599854l-.8199463-.2399902c-.0400391-.4200439-.0400391-.8400269 0-1.2600098l.8199463-.2399902c.1700439-.0500488.3000488-.1900024.3400269-.3600464.1300049-.5799561.3599854-1.1299438.6900024-1.6599731.0899658-.1500244.0899658-.3400269.0100098-.5l-.4100342-.7399902c.2700195-.3300171.5599976-.6199951.8900146-.8900146l.7399902.4100342c.1600342.0799561.3500366.0799561.5-.0100098.5300293-.3300171 1.0800171-.5599976 1.6600342-.6900024.1699829-.0400391.3099976-.1700439.3599854-.3400269l.2399902-.8200073c.4199829-.039978.8400269-.039978 1.2600098 0l.2399902.8200073c.0499878.1699829.1900024.2999878.3599854.3400269.5800171.1300049 1.1300049.3599854 1.6600342.6900024.1499634.0899658.3399658.0899658.5.0100098l.7399902-.4100342c.3300171.2700195.6199951.5599976.8900146.8900146l-.4100342.7399902c-.0799561.1599731-.0799561.3499756.0100098.5.3300171.5300293.5599976 1.0800171.6900024 1.6599731.039978.1700439.1699829.3099976.3400269.3600464l.8199463.2399902c.0400391.4199829.0400391.8399658 0 1.2600098l-.8199463.2399902c-.1700439.0499878-.3000488.1900024-.3400269.3599854-.1300049.5800171-.3599854 1.1300049-.6900024 1.6600342-.0899658.1499634-.0899658.3399658-.0100098.5l.4100342.7399902c-.2700195.3299561-.5599976.6199951-.8900146.8899536l-.7399902-.4099731c-.1600342-.0800171-.3500366-.0800171-.5.0100098-.5300293.3300171-1.0800171.5599976-1.6600342.6900024z" fill="#005fff" fill-opacity="1" data-original-color="#000000ff" stroke="none" stroke-opacity="1"/><path d="m13 12.1699829c-1.5599976 0-2.8300171 1.2700195-2.8300171 2.8300171s1.2700195 2.8299561 2.8300171 2.8299561 2.8300171-1.2699585 2.8300171-2.8299561-1.2700195-2.8300171-2.8300171-2.8300171zm0 4.6599731c-1.0100098 0-1.8300171-.8199463-1.8300171-1.8299561s.8200073-1.8300171 1.8300171-1.8300171 1.8300171.8200073 1.8300171 1.8300171-.8200073 1.8299561-1.8300171 1.8299561z" fill="#005fff" fill-opacity="1" data-original-color="#000000ff" stroke="none" stroke-opacity="1"/></g></svg>