<svg id="Layer_1" viewBox="0 0 512 512" xmlns="http://www.w3.org/2000/svg" data-name="Layer 1"><path d="m235.648 335h-51.548v28.378h51.548zm-223.648-276.283v223.549h287.372v-127.428a15.623 15.623 0 0 1 15.609-15.6h92.767v-80.521a6.241 6.241 0 0 0 -6.227-6.231h-383.289a6.241 6.241 0 0 0 -6.232 6.231zm484.392 92.513a3.614 3.614 0 0 1 3.608 3.608v265.979h-188.633v-265.979a3.618 3.618 0 0 1 3.614-3.608h30.208l5.8 14.066a6 6 0 0 0 5.548 3.717h98.29a6 6 0 0 0 5.552-3.717l5.788-14.066zm15.608 3.608v301.093a15.624 15.624 0 0 1 -15.608 15.609h-181.411a15.624 15.624 0 0 1 -15.609-15.609v-120.931h-51.723v28.378h26.114a23.466 23.466 0 0 1 23.437 23.443v13.368a10.088 10.088 0 0 1 -10.076 10.071h-154.5a10.085 10.085 0 0 1 -10.076-10.071v-13.368a23.467 23.467 0 0 1 23.44-23.444h26.112v-28.377h-153.868a18.252 18.252 0 0 1 -18.232-18.228v-258.055a18.252 18.252 0 0 1 18.232-18.231h383.289a18.256 18.256 0 0 1 18.232 18.231v80.517h76.639a15.623 15.623 0 0 1 15.608 15.604zm-116.989 285.343a6 6 0 0 0 0 12h21.35a6 6 0 0 0 0-12zm-344.391-131.551a6 6 0 0 0 -6-6h-.274a6 6 0 0 0 0 12h.274a5.994 5.994 0 0 0 6-6zm172.849-6h-27.19a6 6 0 0 0 0 12h27.19a6 6 0 0 0 0-12z" fill-rule="evenodd"/></svg>