<svg height="512" viewBox="0 0 64 64" width="512" xmlns="http://www.w3.org/2000/svg"><g id="robot_arm" data-name="robot arm"><path d="m37 49h24v12h-24z" fill="#57a4ff"/><path d="m58 35a7 7 0 0 1 -5 6.71v-4.71a2.006 2.006 0 0 0 -2-2 2.015 2.015 0 0 0 -2 2v4.71a7 7 0 0 1 0-13.42 7.838 7.838 0 0 1 1.19-.24 7.1 7.1 0 0 1 2.81.24 6.987 6.987 0 0 1 5 6.71z" fill="#ff7956"/><path d="m51 16a4 4 0 1 1 -4 4 3.881 3.881 0 0 1 .26-1.41 3.983 3.983 0 0 1 3.12-2.54 4.205 4.205 0 0 1 .62-.05z" fill="#ff7956"/><path d="m53 23.46v4.83a7.1 7.1 0 0 0 -2.81-.24 7.838 7.838 0 0 0 -1.19.24v-4.83a3.974 3.974 0 0 0 4 0z" fill="#ffeb99"/><path d="m45.57 11.24 4.81 4.81a3.983 3.983 0 0 0 -3.12 2.54l-4.34-4.34a6.129 6.129 0 0 0 2.65-3.01z" fill="#ffeb99"/><path d="m46 9a5.956 5.956 0 0 1 -.43 2.24 6.129 6.129 0 0 1 -2.65 3.01 6.009 6.009 0 0 1 -8.57-3.25 5.889 5.889 0 0 1 0-4 6 6 0 0 1 11.65 2z" fill="#ff7956"/><circle cx="40" cy="9" fill="#2488ff" r="2"/><path d="m21.65 7h12.7a5.889 5.889 0 0 0 0 4h-12.7a5.889 5.889 0 0 0 0-4z" fill="#ffeb99"/><path d="m30 55a3 3 0 0 1 0 6h-27v-6z" fill="#57a4ff"/><path d="m20 35 6 20h-9v-10a2.006 2.006 0 0 0 -2-2h-5l1-8z" fill="#ffeb99"/><path d="m21 29a3 3 0 0 1 0 6h-10a3 3 0 0 1 0-6z" fill="#57a4ff"/><path d="m22 9a5.8 5.8 0 0 1 -.35 2 6 6 0 0 1 -11.65-2 6 6 0 0 1 11.65-2 5.8 5.8 0 0 1 .35 2z" fill="#ff7956"/><path d="m20 13.46v15.54h-8v-15.54a5.965 5.965 0 0 0 8 0z" fill="#ffeb99"/><circle cx="16" cy="9" fill="#2488ff" r="2"/><path d="m17 45v10h-14v-10a2.006 2.006 0 0 1 2-2h10a2.006 2.006 0 0 1 2 2z" fill="#ff7956"/><path d="m22.315 12h11.37a6.987 6.987 0 0 0 9.024 3.454l3.428 3.427a4.888 4.888 0 0 0 1.863 5.093v3.607a8 8 0 0 0 .715 15.087 1 1 0 0 0 1.285-.958v-4.71a1 1 0 0 1 2 0v4.71a1 1 0 0 0 1.285.958 7.983 7.983 0 0 0 .715-15.068v-3.626a4.983 4.983 0 0 0 -3-8.974c-.08 0-.154.02-.232.023l-4.055-4.054a6.993 6.993 0 0 0 -13.028-4.969h-11.37a6.994 6.994 0 1 0 -11.315 7.889v14.111a3.989 3.989 0 0 0 -1.111 7.824l-.772 6.176h-4.117a3 3 0 0 0 -3 3v16a1 1 0 0 0 1 1h27a4 4 0 0 0 0-8h-3.256l-5.41-18.034a3.99 3.99 0 0 0 -.334-7.966v-14.111a7.037 7.037 0 0 0 1.315-1.889zm34.685 23a5.957 5.957 0 0 1 -3 5.2v-3.2a3 3 0 0 0 -6 0v3.2a6 6 0 0 1 2.3-11.16 6 6 0 0 1 6.7 5.96zm-5-7.925a8.148 8.148 0 0 0 -1.925-.023c-.026 0-.05.008-.075.012v-2.164a5 5 0 0 0 2 0zm2-7.075a3 3 0 1 1 -3-3 3 3 0 0 1 3 3zm-5.428-4.344a5 5 0 0 0 -1.52 1.312l-2.584-2.584a7.076 7.076 0 0 0 1.344-1.484zm-8.572-11.656a5 5 0 1 1 -5 5 5.006 5.006 0 0 1 5-5zm-6.92 4a7.026 7.026 0 0 0 -.08 1 7.026 7.026 0 0 0 .08 1h-10.16a7.026 7.026 0 0 0 .08-1 7.026 7.026 0 0 0 -.08-1zm-17.08-4a5 5 0 1 1 -5 5 5.006 5.006 0 0 1 5-5zm-11 40h10a1 1 0 0 1 1 1v9h-12v-9a1 1 0 0 1 1-1zm27 14a2 2 0 0 1 -2 2h-26v-4h26a2 2 0 0 1 2 2zm-14-4v-9a3 3 0 0 0 -3-3h-3.867l.75-6h7.373l5.4 18zm5-22a2 2 0 0 1 -2 2h-10a2 2 0 0 1 0-4h10a2 2 0 0 1 2 2zm-10-4v-12.685a6.912 6.912 0 0 0 6 0v12.685z"/><path d="m16 12a3 3 0 1 0 -3-3 3 3 0 0 0 3 3zm0-4a1 1 0 1 1 -1 1 1 1 0 0 1 1-1z"/><path d="m40 12a3 3 0 1 0 -3-3 3 3 0 0 0 3 3zm0-4a1 1 0 1 1 -1 1 1 1 0 0 1 1-1z"/><path d="m50 19h2v2h-2z"/><path d="m61 48h-24a1 1 0 0 0 -1 1v12a1 1 0 0 0 1 1h24a1 1 0 0 0 1-1v-12a1 1 0 0 0 -1-1zm-1 12h-22v-10h22z"/></g></svg>