<svg clip-rule="evenodd" fill-rule="evenodd" height="300" image-rendering="optimizeQuality" shape-rendering="geometricPrecision" text-rendering="geometricPrecision" viewBox="0 0 1707 1707" width="300" xmlns="http://www.w3.org/2000/svg" version="1.1" xmlns:xlink="http://www.w3.org/1999/xlink" xmlns:svgjs="http://svgjs.dev/svgjs"><g width="100%" height="100%" transform="matrix(1,0,0,1,0,0)"><g id="Layer_x0020_1"><path d="m801 1647c-5 0-11-1-15-4-3-1-236-143-556-117-8 1-16-2-22-7-6-6-9-13-9-22v-1405c0-15 12-28 27-29 339-28 580 119 590 125 9 6 14 16 14 26v1404c0 5-1 11-4 16-6 9-15 13-25 13zm-72 0h-700c-16 0-29-13-29-29v-1405c0-16 13-29 29-29h140v1313c0 17 7 33 19 44s28 17 45 15c129-10 259 6 382 46 39 13 77 27 113 45zm123-1463h826c16 0 29 13 29 29v1405c0 16-13 29-29 29h-826c6-9 8-20 8-30v-1403c0-11-2-21-8-30zm738 824c8 0 15-7 15-16 0-8-7-15-15-15h-621c-8 0-15 7-15 15 0 9 7 16 15 16zm-514-451h-1-1-1-1-1l-1 1h-1-1l-1 1c-1 0-1 1-1 1h-1l-1 1-70 63c-6 6-7 16-1 22 6 7 16 7 22 1l44-39v143c0 9 7 16 15 16h438c9 0 16-7 16-16s-7-16-16-16h-422v-127l44 39c3 3 6 4 10 4 5 0 9-1 12-5 6-6 5-16-1-22l-70-63c-2-2-5-3-7-4-1 0-1 0-2 0zm398 89 1 1c1 0 1 1 2 1h1c0 1 0 1 1 1h1 1l1 1h1 1 1 1 1l1-1h1 2l1-1 1-1h1v-1h1l70-63c6-6 7-16 1-22-6-7-16-7-22-1l-44 39v-143c0-9-7-16-16-16h-438c-8 0-15 7-15 16s7 16 15 16h423v127l-44-39c-7-6-16-6-22 1-6 6-5 16 1 22zm116 822c8 0 15-7 15-16 0-8-7-15-15-15h-621c-8 0-15 7-15 15 0 9 7 16 15 16zm0-153c8 0 15-7 15-16s-7-16-15-16h-621c-8 0-15 7-15 16s7 16 15 16zm0-154c8 0 15-7 15-15 0-9-7-16-15-16h-621c-8 0-15 7-15 16 0 8 7 15 15 15zm-901-806c5 0 10-3 13-7 5-7 3-17-5-22-29-19-70-37-104-48-81-28-168-40-254-32-9 0-15 8-15 17 1 8 9 15 17 14 82-7 164 4 241 31 31 10 71 26 98 44 3 2 6 3 9 3zm0 1058c5 0 10-2 13-7 5-7 3-17-4-21-30-20-71-37-105-49-81-28-168-39-254-32-9 1-15 8-15 17 1 9 9 15 17 14 82-7 164 4 241 31 31 11 71 27 98 45 3 1 6 2 9 2zm0-151c5 0 10-2 13-7 5-7 3-17-4-22-30-19-71-36-105-48-81-28-168-40-254-32-9 1-15 8-15 17 1 8 9 15 17 14 82-7 164 4 241 31 31 10 71 27 98 45 3 1 6 2 9 2zm0-151c5 0 10-3 13-7 5-7 3-17-4-22-30-19-71-37-105-48-81-28-168-40-254-32-9 0-15 8-15 17 1 8 9 15 17 14 82-7 164 4 241 31 31 10 71 26 98 44 3 2 6 3 9 3zm0-151c5 0 10-3 13-7 5-8 3-17-4-22-30-20-71-37-105-48-81-29-168-40-254-33-9 1-15 9-15 17 1 9 9 15 17 15 82-7 164 4 241 30 31 11 71 27 98 45 3 2 6 3 9 3zm0-151c5 0 10-3 13-8 5-7 3-16-5-21-29-20-70-37-104-48-81-29-168-40-254-33-9 1-15 9-15 17 1 9 9 15 17 14 82-7 164 5 241 31 31 11 71 27 98 45 3 2 6 3 9 3zm0-152c5 0 10-2 13-7 5-7 3-17-5-21-29-20-70-37-104-49-81-28-168-39-254-32-9 1-15 8-15 17 1 9 9 15 17 14 82-7 164 4 241 31 31 11 71 27 98 45 3 1 6 2 9 2zm0-151c5 0 10-2 13-7 5-7 3-17-5-22-29-19-70-36-104-48-81-28-168-40-254-32-9 1-15 8-15 17 1 8 9 15 17 14 82-7 164 4 241 31 31 10 71 27 98 45 3 1 6 2 9 2z" fill="#005fff" fill-opacity="1" data-original-color="#000000ff" stroke="none" stroke-opacity="1"/></g></g></svg>