<svg height="30" viewBox="0 0 30 30" width="30" xmlns="http://www.w3.org/2000/svg" xmlns:sketch="http://www.bohemiancoding.com/sketch/ns"><g id="interface" fill="none" fill-rule="evenodd"><g id="interface_033-window-code-html-programming-application" fill="#000" transform="translate(-405 -135)"><g transform="translate(408 138)"><path id="Shape" d="m0 .5v22c0 .2761424.22385763.5.5.5h24c.2761424 0 .5-.2238576.5-.5v-22c0-.27614237-.2238576-.5-.5-.5h-24c-.27614237 0-.5.22385763-.5.5zm1 .5h23v3h-23zm0 4h23v17h-23zm1.5-2c.27614237 0 .5-.22385763.5-.5s-.22385763-.5-.5-.5-.5.22385763-.5.5.22385763.5.5.5zm2 0c.27614237 0 .5-.22385763.5-.5s-.22385763-.5-.5-.5-.5.22385763-.5.5.22385763.5.5.5zm2 0c.27614237 0 .5-.22385763.5-.5s-.22385763-.5-.5-.5-.5.22385763-.5.5.22385763.5.5.5z"/><path id="Shape" d="m8.14644661 12.8535534 1.41421356 1.4142136c.19526215.1952621.51184463.1952621.70710683 0 .1952621-.1952622.1952621-.5118447 0-.7071068l-1.06066022-1.0606602 1.06066022-1.0606602c.1952621-.1952621.1952621-.5118446 0-.7071068-.1952622-.1952621-.51184468-.1952621-.70710683 0l-1.41421356 1.4142136c-.19526215.1952622-.19526215.5118446 0 .7071068z"/><path id="Shape" d="m16.8577633 12.8535534-1.4142136 1.4142136c-.1952621.1952621-.5118446.1952621-.7071068 0-.1952621-.1952622-.1952621-.5118447 0-.7071068l1.0606602-1.0606602-1.0606602-1.0606602c-.1952621-.1952621-.1952621-.5118446 0-.7071068.1952622-.1952621.5118447-.1952621.7071068 0l1.4142136 1.4142136c.1952621.1952622.1952621.5118446 0 .7071068z"/><path id="Shape" d="m11.515047 14.3787322c-.0669743.2678974.095906.5393647.3638035.6063391.2678974.0669743.5393647-.095906.606339-.3638035l1-4c.0669744-.2678974-.095906-.5393647-.3638034-.6063391-.2678975-.06697431-.5393647.095906-.6063391.3638035z"/></g></g></g></svg>