<svg width="73" height="73" viewBox="0 0 73 73" fill="none" xmlns="http://www.w3.org/2000/svg">
<path d="M10.676 11.9429C4.47903 18.4577 0.959397 27.0651 0.816244 36.0553C0.673091 45.0455 3.9169 53.7606 9.90328 60.4694C15.8897 67.1781 24.1806 71.3896 33.129 72.2672C42.0774 73.1448 51.0285 70.6242 58.2042 65.2063C65.3798 59.7884 70.255 51.8695 71.8611 43.0228C73.4673 34.176 71.6869 25.0488 66.8737 17.4543C62.0604 9.85976 54.5666 4.3536 45.8808 2.02964C37.195 -0.294305 27.9528 0.733999 19.9902 4.91029L30.3744 24.7091C33.3662 23.14 36.8388 22.7536 40.1023 23.6268C43.3658 24.5 46.1815 26.5688 47.99 29.4223C49.7984 32.2758 50.4674 35.7051 49.8639 39.0291C49.2604 42.3531 47.4287 45.3285 44.7326 47.3641C42.0365 49.3998 38.6733 50.3469 35.3111 50.0171C31.9489 49.6874 28.8337 48.105 26.5845 45.5843C24.3352 43.0636 23.1164 39.7891 23.1702 36.4112C23.224 33.0333 24.5464 29.7993 26.8748 27.3515L10.676 11.9429Z" fill="#005FFF"/>
</svg>
