<svg width="619" height="126" viewBox="0 0 619 126" fill="none" xmlns="http://www.w3.org/2000/svg">
<g clip-path="url(#clip0_260_185)">
<path d="M0.453125 119L5.60938 64.5781C6.04688 60.0781 7.54688 56.6562 10.1094 54.3125C12.6719 51.9375 16.1719 50.75 20.6094 50.75C24.2656 50.75 27.2812 51.625 29.6562 53.375C32.0625 55.125 33.6875 57.6406 34.5312 60.9219L38.0938 75.6875C38.3438 76.8125 38.6094 78.1406 38.8906 79.6719C39.1719 81.2031 39.4688 82.9531 39.7812 84.9219C40.2812 81.7656 40.6406 79.6094 40.8594 78.4531C41.0781 77.2656 41.2656 76.3594 41.4219 75.7344L44.9844 60.9219C45.7969 57.6406 47.4062 55.125 49.8125 53.375C52.2188 51.625 55.25 50.75 58.9062 50.75C63.3438 50.75 66.8438 51.9375 69.4062 54.3125C71.9688 56.6562 73.4531 60.0781 73.8594 64.5781L79.1562 119H58.4375L55.625 75.5C55.4375 77.25 55.2031 78.9219 54.9219 80.5156C54.6719 82.1094 54.4062 83.6094 54.125 85.0156L47.75 111.969C47.125 114.656 46.1562 116.656 44.8438 117.969C43.5312 119.281 41.8438 119.938 39.7812 119.938C37.75 119.938 36.0781 119.281 34.7656 117.969C33.4531 116.656 32.4688 114.656 31.8125 111.969L25.4844 85.0156C25.2344 84.0156 24.9688 82.7031 24.6875 81.0781C24.4062 79.4219 24.125 77.5625 23.8438 75.5L21.0781 119H0.453125ZM190.484 73.3906V119H171.453V55.0156H196.25C207.125 55.0156 215.641 57.4844 221.797 62.4219C229.109 68.3281 232.766 76.3438 232.766 86.4688C232.766 96.1562 229.641 104.062 223.391 110.188C217.141 116.312 209.094 119.375 199.25 119.375C198.094 119.375 196.203 119.312 193.578 119.188V100.391H196.625C207.719 100.391 213.266 95.75 213.266 86.4688C213.266 77.75 207.812 73.3906 196.906 73.3906H190.484ZM282.172 70.5312H278.047C273.047 70.5312 269.281 71.0312 266.75 72.0312C264.25 73.0312 262.234 74.7344 260.703 77.1406H282.172V93.5469H260.609C262.109 96.0469 264.125 97.8125 266.656 98.8438C269.188 99.875 272.984 100.391 278.047 100.391H282.172V119H280.391C274.422 119 269.203 118.531 264.734 117.594C260.266 116.656 256.516 115.234 253.484 113.328C248.484 110.172 244.609 106.172 241.859 101.328C239.109 96.4531 237.734 91.1406 237.734 85.3906C237.734 79.6719 239.094 74.3906 241.812 69.5469C244.562 64.7031 248.453 60.7031 253.484 57.5469C256.516 55.6719 260.266 54.2656 264.734 53.3281C269.203 52.3594 274.422 51.875 280.391 51.875H282.172V70.5312ZM289.906 51.875H310.438V94.7188C310.438 96.5625 310.844 98 311.656 99.0312C312.5 100.062 313.672 100.578 315.172 100.578C316.578 100.578 317.688 100.062 318.5 99.0312C319.344 97.9688 319.766 96.5312 319.766 94.7188V51.875H340.391V94.7188C340.391 96.5938 340.781 98.0469 341.562 99.0781C342.375 100.078 343.531 100.578 345.031 100.578C346.438 100.578 347.547 100.062 348.359 99.0312C349.203 97.9688 349.625 96.5312 349.625 94.7188V51.875H370.25V91.9062C370.25 100.438 367.953 107.281 363.359 112.438C358.766 117.594 352.75 120.172 345.312 120.172C342.438 120.172 339.734 119.703 337.203 118.766C334.703 117.797 332.312 116.344 330.031 114.406C327.719 116.344 325.328 117.797 322.859 118.766C320.391 119.703 317.828 120.172 315.172 120.172C307.516 120.172 301.391 117.625 296.797 112.531C292.203 107.438 289.906 100.562 289.906 91.9062V51.875ZM398.281 85.2969C398.281 89.1094 399.562 92.3594 402.125 95.0469C404.688 97.7031 407.797 99.0312 411.453 99.0312C415.047 99.0312 418.109 97.7031 420.641 95.0469C423.203 92.3594 424.484 89.1094 424.484 85.2969C424.484 81.4844 423.219 78.2656 420.688 75.6406C418.156 72.9844 415.078 71.6562 411.453 71.6562C407.797 71.6562 404.688 72.9844 402.125 75.6406C399.562 78.2969 398.281 81.5156 398.281 85.2969ZM376.672 85.3906C376.672 80.7656 377.547 76.3438 379.297 72.125C381.078 67.9062 383.625 64.1406 386.938 60.8281C390.219 57.5781 393.953 55.0938 398.141 53.375C402.359 51.625 406.797 50.75 411.453 50.75C416.109 50.75 420.516 51.625 424.672 53.375C428.859 55.0938 432.609 57.6094 435.922 60.9219C439.234 64.2344 441.75 67.9844 443.469 72.1719C445.219 76.3281 446.094 80.7344 446.094 85.3906C446.094 90.0781 445.219 94.5312 443.469 98.75C441.719 102.938 439.203 106.672 435.922 109.953C432.609 113.266 428.859 115.797 424.672 117.547C420.516 119.297 416.109 120.172 411.453 120.172C406.828 120.172 402.406 119.297 398.188 117.547C394 115.797 390.25 113.266 386.938 109.953C383.625 106.641 381.078 102.891 379.297 98.7031C377.547 94.4844 376.672 90.0469 376.672 85.3906ZM452.562 118.906V77.5156C452.562 69.3281 454.891 62.8125 459.547 57.9688C464.203 53.0938 470.422 50.6562 478.203 50.6562C485.422 50.6562 491.5 52.7031 496.438 56.7969C501.375 60.8906 503.844 65.9062 503.844 71.8438C503.844 74.6875 503.203 77.1875 501.922 79.3438C500.641 81.4688 498.719 83.2656 496.156 84.7344C499.156 85.7656 501.312 87.3438 502.625 89.4688C503.938 91.5938 504.594 94.5938 504.594 98.4688V119H483.688V101.328C483.688 99.1719 483.219 97.6875 482.281 96.875C481.375 96.0625 479.594 95.6562 476.938 95.6562H476V79.1562H477.031C479.312 79.1562 481.031 78.7188 482.188 77.8438C483.375 76.9688 483.969 75.6719 483.969 73.9531C483.969 72.5156 483.469 71.3125 482.469 70.3438C481.5 69.375 480.297 68.8906 478.859 68.8906C477.016 68.8906 475.688 69.5 474.875 70.7188C474.094 71.9375 473.703 73.9844 473.703 76.8594V118.906H452.562ZM511.531 119V51.875H532.672V74.4219C533.828 74.3594 534.812 73.8906 535.625 73.0156C536.438 72.1094 537.141 70.7031 537.734 68.7969L543.125 51.875H565.016L557.797 71.2812C556.859 73.8125 555.953 75.7344 555.078 77.0469C554.203 78.3594 553.188 79.3594 552.031 80.0469C556.062 80.8594 558.875 82.5938 560.469 85.25C562.094 87.9062 562.906 92.5 562.906 99.0312V119H541.766V97.7656C541.766 95.0469 541.328 93.2031 540.453 92.2344C539.578 91.2656 537.969 90.7812 535.625 90.7812H532.672V119H511.531ZM568.859 119V99.3125H587.047C588.266 99.3125 589.156 99.125 589.719 98.75C590.281 98.375 590.562 97.7656 590.562 96.9219C590.562 96.4531 590.453 95.9688 590.234 95.4688C590.016 94.9688 589.75 94.5938 589.438 94.3438L575.797 83.5625C573.672 81.875 572.031 79.8125 570.875 77.375C569.75 74.9375 569.188 72.2969 569.188 69.4531C569.188 63.9844 571.266 59.6875 575.422 56.5625C579.609 53.4375 585.391 51.875 592.766 51.875H612.828V71H596.422C595.266 71 594.422 71.1406 593.891 71.4219C593.359 71.7031 593.094 72.1406 593.094 72.7344C593.094 73.1719 593.203 73.5781 593.422 73.9531C593.672 74.3281 594.234 74.875 595.109 75.5938L604.297 82.8125C609.047 86.5312 612.078 89.5781 613.391 91.9531C614.703 94.3281 615.359 97.1094 615.359 100.297C615.359 106.078 613.172 110.641 608.797 113.984C604.422 117.328 598.406 119 590.75 119H568.859Z" fill="black"/>
<path d="M97.676 60.9429C91.479 67.4577 87.9594 76.0651 87.8162 85.0553C87.6731 94.0455 90.9169 102.761 96.9033 109.469C102.89 116.178 111.181 120.39 120.129 121.267C129.077 122.145 138.029 119.624 145.204 114.206C152.38 108.788 157.255 100.869 158.861 92.0228C160.467 83.176 158.687 74.0488 153.874 66.4543C149.06 58.8598 141.567 53.3536 132.881 51.0296C124.195 48.7057 114.953 49.734 106.99 53.9103L117.374 73.7091C120.366 72.14 123.839 71.7536 127.102 72.6268C130.366 73.5 133.181 75.5688 134.99 78.4223C136.798 81.2758 137.467 84.7051 136.864 88.0291C136.26 91.3531 134.429 94.3285 131.733 96.3641C129.036 98.3998 125.673 99.3469 122.311 99.0171C118.949 98.6874 115.834 97.105 113.584 94.5843C111.335 92.0636 110.116 88.7891 110.17 85.4112C110.224 82.0333 111.546 78.7993 113.875 76.3515L97.676 60.9429Z" fill="#005FFF"/>
<path d="M1.3125 26V3.375H8.875C11.0833 3.375 12.9844 3.82812 14.5781 4.73438C16.1823 5.63021 17.4062 6.92708 18.25 8.625C19.1042 10.3125 19.5312 12.3229 19.5312 14.6562C19.5312 17 19.099 19.026 18.2344 20.7344C17.3802 22.4323 16.1354 23.7344 14.5 24.6406C12.875 25.5469 10.9271 26 8.65625 26H1.3125ZM8.46875 23C11 23 12.9062 22.2865 14.1875 20.8594C15.4792 19.4219 16.125 17.3542 16.125 14.6562C16.125 11.9792 15.4896 9.93229 14.2188 8.51562C12.9583 7.08854 11.1042 6.375 8.65625 6.375H4.75V23H8.46875ZM48.3662 3.375H62.5537V6.34375H51.8037V13.1875H61.8037V16.125H51.8037V23.0312H62.6787V26H48.3662V3.375ZM104.045 9.34375C103.941 8.3125 103.467 7.50521 102.623 6.92188C101.779 6.32812 100.701 6.03125 99.3887 6.03125C98.4825 6.03125 97.6856 6.17708 96.9981 6.46875C96.3106 6.75 95.7794 7.14583 95.4044 7.65625C95.0398 8.15625 94.8575 8.72917 94.8575 9.375C94.8575 10.3333 95.2481 11.0677 96.0294 11.5781C96.8106 12.0885 97.795 12.4896 98.9825 12.7812L101.17 13.375C102.993 13.8021 104.535 14.5104 105.795 15.5C107.055 16.4896 107.691 17.9062 107.701 19.75C107.691 21.0312 107.352 22.1719 106.686 23.1719C106.019 24.1719 105.055 24.9583 103.795 25.5312C102.535 26.0938 101.035 26.375 99.295 26.375C97.6179 26.375 96.1544 26.1094 94.9044 25.5781C93.6648 25.0365 92.6908 24.2656 91.9825 23.2656C91.2846 22.2656 90.8992 21.0833 90.8262 19.7188H94.2637C94.3679 20.9062 94.8835 21.8125 95.8106 22.4375C96.7377 23.0625 97.8992 23.375 99.295 23.375C100.243 23.375 101.092 23.224 101.842 22.9219C102.602 22.6094 103.196 22.1771 103.623 21.625C104.061 21.0625 104.285 20.4167 104.295 19.6875C104.285 18.7812 103.915 18.0781 103.186 17.5781C102.456 17.0677 101.399 16.6354 100.014 16.2812L97.3262 15.5625C93.3887 14.4792 91.42 12.4792 91.42 9.5625C91.42 8.29167 91.769 7.16146 92.4669 6.17188C93.1752 5.18229 94.144 4.41667 95.3731 3.875C96.6023 3.33333 97.9721 3.0625 99.4825 3.0625C100.993 3.0625 102.342 3.33333 103.529 3.875C104.717 4.40625 105.649 5.15104 106.326 6.10938C107.003 7.05729 107.357 8.13542 107.389 9.34375H104.045ZM139.786 26H136.349V3.375H139.786V26ZM184.621 10.5312C184.194 9.16667 183.475 8.10938 182.465 7.35938C181.465 6.59896 180.225 6.21875 178.746 6.21875C177.465 6.21875 176.309 6.55208 175.277 7.21875C174.257 7.875 173.455 8.84375 172.871 10.125C172.288 11.3958 171.996 12.9167 171.996 14.6875C171.996 16.4688 172.288 17.9948 172.871 19.2656C173.465 20.5365 174.283 21.5052 175.324 22.1719C176.366 22.8281 177.559 23.1562 178.902 23.1562C180.1 23.1562 181.152 22.9167 182.059 22.4375C182.965 21.9583 183.668 21.276 184.168 20.3906C184.679 19.4948 184.944 18.4479 184.965 17.25H179.402V14.4062H188.309V16.9688C188.309 18.8438 187.908 20.4896 187.106 21.9062C186.304 23.3125 185.184 24.401 183.746 25.1719C182.319 25.9323 180.694 26.3125 178.871 26.3125C176.84 26.3125 175.048 25.8438 173.496 24.9062C171.944 23.9583 170.736 22.6094 169.871 20.8594C169.017 19.099 168.59 17.0417 168.59 14.6875C168.59 12.3333 169.022 10.2812 169.887 8.53125C170.751 6.77083 171.949 5.42188 173.481 4.48438C175.022 3.53646 176.767 3.0625 178.715 3.0625C180.33 3.0625 181.804 3.38021 183.137 4.01562C184.481 4.64062 185.585 5.52083 186.449 6.65625C187.324 7.78125 187.892 9.07292 188.152 10.5312H184.621ZM235.487 26H232.331L220.862 9.46875H220.675V26H217.237V3.375H220.425L231.894 19.9375H232.112V3.375H235.487V26ZM375.702 9.34375C375.598 8.3125 375.124 7.50521 374.281 6.92188C373.437 6.32812 372.359 6.03125 371.046 6.03125C370.14 6.03125 369.343 6.17708 368.656 6.46875C367.968 6.75 367.437 7.14583 367.062 7.65625C366.697 8.15625 366.515 8.72917 366.515 9.375C366.515 10.3333 366.906 11.0677 367.687 11.5781C368.468 12.0885 369.452 12.4896 370.64 12.7812L372.827 13.375C374.65 13.8021 376.192 14.5104 377.452 15.5C378.713 16.4896 379.348 17.9062 379.359 19.75C379.348 21.0312 379.01 22.1719 378.343 23.1719C377.676 24.1719 376.713 24.9583 375.452 25.5312C374.192 26.0938 372.692 26.375 370.952 26.375C369.275 26.375 367.812 26.1094 366.562 25.5781C365.322 25.0365 364.348 24.2656 363.64 23.2656C362.942 22.2656 362.557 21.0833 362.484 19.7188H365.921C366.025 20.9062 366.541 21.8125 367.468 22.4375C368.395 23.0625 369.557 23.375 370.952 23.375C371.9 23.375 372.749 23.224 373.499 22.9219C374.26 22.6094 374.854 22.1771 375.281 21.625C375.718 21.0625 375.942 20.4167 375.952 19.6875C375.942 18.7812 375.572 18.0781 374.843 17.5781C374.114 17.0677 373.057 16.6354 371.671 16.2812L368.984 15.5625C365.046 14.4792 363.077 12.4792 363.077 9.5625C363.077 8.29167 363.426 7.16146 364.124 6.17188C364.833 5.18229 365.801 4.41667 367.031 3.875C368.26 3.33333 369.63 3.0625 371.14 3.0625C372.65 3.0625 373.999 3.33333 375.187 3.875C376.374 4.40625 377.307 5.15104 377.984 6.10938C378.661 7.05729 379.015 8.13542 379.046 9.34375H375.702ZM406.881 3.375H424.412V6.34375H417.381V26H413.944V6.34375H406.881V3.375ZM470.841 3.375V18.25C470.841 19.8229 470.466 21.224 469.716 22.4531C468.977 23.6823 467.925 24.6458 466.56 25.3438C465.206 26.0312 463.643 26.375 461.872 26.375C460.081 26.375 458.503 26.0312 457.138 25.3438C455.774 24.6562 454.721 23.6979 453.982 22.4688C453.242 21.2292 452.872 19.8229 452.872 18.25V3.375H456.31V17.9688C456.31 18.9896 456.534 19.901 456.982 20.7031C457.44 21.4948 458.086 22.1198 458.919 22.5781C459.763 23.026 460.747 23.25 461.872 23.25C462.987 23.25 463.961 23.026 464.794 22.5781C465.628 22.1198 466.268 21.4948 466.716 20.7031C467.175 19.901 467.404 18.9896 467.404 17.9688V3.375H470.841ZM500.426 26V3.375H507.989C510.197 3.375 512.098 3.82812 513.692 4.73438C515.296 5.63021 516.52 6.92708 517.364 8.625C518.218 10.3125 518.645 12.3229 518.645 14.6562C518.645 17 518.213 19.026 517.348 20.7344C516.494 22.4323 515.249 23.7344 513.614 24.6406C511.989 25.5469 510.041 26 507.77 26H500.426ZM507.582 23C510.114 23 512.02 22.2865 513.301 20.8594C514.593 19.4219 515.239 17.3542 515.239 14.6562C515.239 11.9792 514.603 9.93229 513.332 8.51562C512.072 7.08854 510.218 6.375 507.77 6.375H503.864V23H507.582ZM550.917 26H547.48V3.375H550.917V26ZM600.128 14.6875C600.128 17.0417 599.69 19.099 598.815 20.8594C597.94 22.6094 596.726 23.9583 595.174 24.9062C593.633 25.8438 591.888 26.3125 589.94 26.3125C587.971 26.3125 586.211 25.8438 584.659 24.9062C583.117 23.9583 581.909 22.6094 581.034 20.8594C580.159 19.099 579.721 17.0417 579.721 14.6875C579.721 12.3229 580.159 10.2656 581.034 8.51562C581.909 6.75521 583.117 5.40625 584.659 4.46875C586.211 3.53125 587.971 3.0625 589.94 3.0625C591.888 3.0625 593.633 3.53125 595.174 4.46875C596.726 5.40625 597.94 6.75521 598.815 8.51562C599.69 10.2656 600.128 12.3229 600.128 14.6875ZM596.721 14.6875C596.721 12.8958 596.43 11.3646 595.846 10.0938C595.263 8.82292 594.456 7.85938 593.424 7.20312C592.404 6.54688 591.242 6.21875 589.94 6.21875C588.628 6.21875 587.456 6.54688 586.424 7.20312C585.393 7.85938 584.586 8.82292 584.003 10.0938C583.419 11.3646 583.128 12.8958 583.128 14.6875C583.128 16.4792 583.419 18.0104 584.003 19.2812C584.586 20.5521 585.393 21.5156 586.424 22.1719C587.456 22.8281 588.628 23.1562 589.94 23.1562C591.242 23.1562 592.404 22.8281 593.424 22.1719C594.456 21.5156 595.263 20.5521 595.846 19.2812C596.43 18 596.721 16.4688 596.721 14.6875Z" fill="#797979"/>
</g>
<defs>
<clipPath id="clip0_260_185">
<rect width="619" height="126" fill="white"/>
</clipPath>
</defs>
</svg>
